<?xml version="1.0" encoding="utf-8"?>
<svg style="width:24px;height:24px" viewBox="0 0 24 24" xmlns="http://www.w3.org/2000/svg">
  <path d="M 5.784 18.993 C 5.784 19.523 5.994 20.032 6.369 20.407 C 6.744 20.782 7.253 20.993 7.784 20.993 L 15.784 20.993 C 16.314 20.993 16.823 20.782 17.198 20.407 C 17.573 20.032 17.784 19.523 17.784 18.993 L 17.784 6.993 L 5.784 6.993 L 5.784 18.993 Z M 7.784 8.993 L 15.784 8.993 L 15.784 18.993 L 7.784 18.993 L 7.784 8.993 Z M 15.284 3.993 L 14.284 2.993 L 9.284 2.993 L 8.284 3.993 L 4.784 3.993 L 4.784 5.993 L 18.784 5.993 L 18.784 3.993 L 15.284 3.993 Z" fill="currentColor" style="opacity: 1;"/>
</svg>